# xmcd CD database file
#
# Track frame offsets:
#	150
#	37660
#	68805
#	92812
#	120682
#	151857
#	177745
#	199467
#
# Disc length: 2994 seconds
#
# Revision: 0
# Processed by: cddbd v1.4PL0 Copyright (c) Steve Scherf et al.
# Submitted via: CDex 1.50beta9
#
DISCID=690bb008
DTITLE=Takeharu Hayakawa - HAYAKAWA
DYEAR=1996
DGENRE=Jazz
TTITLE0=Genbu
TTITLE1=Flying Head
TTITLE2=The Sea Of Pterosaurs
TTITLE3=One More Cup Of Coffee
TTITLE4=Tsuchigumo
TTITLE5=sixfold Spirals
TTITLE6=Wormhole
TTITLE7=Masakosa Shuffle
EXTD=YEAR: 1996
EXTT0=
EXTT1=
EXTT2=
EXTT3=
EXTT4=
EXTT5=
EXTT6=
EXTT7=
PLAYORDER=
